<!-- <svg version="1.1" id="Layer_1" xmlns="http://www.w3.org/2000/svg" xmlns:xlink="http://www.w3.org/1999/xlink" viewBox="0 0 394.662 394.662" xml:space="preserve" fill="#000000"><g id="SVGRepo_bgCarrier" stroke-width="0"></g><g id="SVGRepo_tracerCarrier" stroke-linecap="round" stroke-linejoin="round"></g><g id="SVGRepo_iconCarrier"> <g> <path style="fill:#F4C8C1;" d="M258.211,96.97c-15.3-16.09-36.92-26.12-60.88-26.12c-23.97,0-45.59,10.04-60.9,26.13 c6.96-27.14,31.58-47.2,60.9-47.2C226.631,49.78,251.261,69.84,258.211,96.97z"></path> <path style="fill:#FFDED7;" d="M260.181,112.63c0,34.72-28.14,79.4-62.85,79.4c-34.72,0-62.86-44.68-62.86-79.4 c0-5.4,0.68-10.65,1.96-15.65c15.31-16.09,36.93-26.13,60.9-26.13c23.96,0,45.58,10.03,60.88,26.12 C259.501,101.98,260.181,107.22,260.181,112.63z"></path> <path style="fill:#999999;" d="M300.531,279.47v0.01c-27.75,23.75-63.8,38.1-103.2,38.1c-19.26,0-37.73-3.43-54.81-9.72 c-17.87-6.56-34.22-16.25-48.41-28.4c0.08-0.87,0.17-1.73,0.27-2.6c0.09-0.76,0.18-1.52,0.29-2.27c0.03-0.21,0.06-0.41,0.09-0.62 c0.1-0.75,0.22-1.5,0.35-2.24c0.06-0.38,0.13-0.77,0.2-1.16c0.06-0.38,0.14-0.76,0.21-1.15c0.08-0.41,0.16-0.83,0.25-1.25 c0.08-0.42,0.17-0.83,0.26-1.24s0.18-0.82,0.28-1.23c0.04-0.18,0.08-0.36,0.12-0.53c0.04-0.18,0.08-0.36,0.13-0.54 c0.13-0.55,0.26-1.1,0.41-1.65c0-0.04,0.01-0.08,0.03-0.11c15.75,12.86,34.01,22.75,53.93,28.82c14.67,4.48,30.26,6.89,46.4,6.89 c38.05,0,72.98-13.38,100.32-35.7c0.03,0.12,0.06,0.24,0.09,0.37c0.01,0.04,0.02,0.07,0.03,0.11c0.13,0.5,0.25,0.99,0.37,1.49v0.01 c0.01,0.04,0.02,0.09,0.03,0.14c0.02,0.07,0.04,0.15,0.05,0.22c0.14,0.57,0.27,1.15,0.39,1.72c0.11,0.51,0.22,1.02,0.32,1.54 c0.09,0.41,0.17,0.81,0.24,1.22c0.13,0.65,0.24,1.3,0.35,1.96c0.01,0.07,0.03,0.15,0.03,0.23c0.11,0.63,0.21,1.26,0.3,1.9 c0.05,0.3,0.09,0.6,0.13,0.91c0.11,0.72,0.2,1.44,0.28,2.17C300.361,277.73,300.451,278.6,300.531,279.47z"></path> <path style="fill:#CCCCCC;" d="M297.651,262.88c-27.34,22.32-62.27,35.7-100.32,35.7c-38.06,0-72.98-13.38-100.33-35.71 c5.43-20.95,17.26-39.33,33.27-52.93c11.16-9.48,27.12-10.27,39.64-2.68c8.46,5.13,17.72,8.14,27.42,8.14s18.95-3.01,27.41-8.14 c12.49-7.56,28.42-6.83,39.56,2.61C280.351,223.48,292.211,241.88,297.651,262.88z"></path> <path style="fill:#F9A18A;" d="M287.951,28.38C262.251,10.49,231.021,0,197.331,0c-25.59,0-49.77,6.05-71.17,16.8 c-51.96,26.1-87.62,79.88-87.62,141.99c0,7.87,0.57,15.61,1.68,23.17c5.68,38.85,25.42,73.13,53.89,97.5 c0.08-0.87,0.17-1.73,0.27-2.6c0.09-0.76,0.18-1.52,0.29-2.27c0.03-0.21,0.06-0.41,0.09-0.62c0.1-0.75,0.22-1.5,0.35-2.24 c0.06-0.38,0.13-0.77,0.2-1.16c0.06-0.38,0.14-0.76,0.21-1.15c0.08-0.41,0.16-0.83,0.25-1.25c0.08-0.42,0.17-0.83,0.26-1.24 s0.18-0.82,0.28-1.23c0.04-0.18,0.08-0.36,0.12-0.53c0.04-0.18,0.08-0.36,0.13-0.54c0.13-0.55,0.26-1.1,0.41-1.65 c0-0.04,0.01-0.08,0.03-0.11c0-0.03,0.01-0.06,0.02-0.08c0.15-0.6,0.31-1.2,0.48-1.79c0.37-1.33,0.77-2.64,1.19-3.95 c0.12-0.36,0.23-0.72,0.36-1.08c0.17-0.51,0.34-1.01,0.52-1.51c0.23-0.67,0.47-1.33,0.72-1.98c0.68-1.82,1.42-3.62,2.21-5.39 c0.23-0.55,0.48-1.1,0.74-1.64c0.01-0.03,0.02-0.05,0.04-0.08c0.16-0.36,0.33-0.72,0.5-1.07c0.05-0.09,0.09-0.19,0.14-0.28 c0.27-0.59,0.56-1.18,0.86-1.76c0.6-1.18,1.21-2.35,1.86-3.5c0.31-0.58,0.64-1.16,0.98-1.73c0.32-0.57,0.66-1.14,1.01-1.7 c0.33-0.56,0.68-1.12,1.04-1.68c0.7-1.12,1.42-2.22,2.18-3.3c0.24-0.37,0.49-0.73,0.76-1.09c0,0,0-0.01,0.01-0.01 c0.33-0.49,0.68-0.96,1.04-1.45c0.26-0.37,0.54-0.75,0.83-1.11c0.05-0.06,0.09-0.13,0.14-0.19c0.23-0.32,0.46-0.62,0.71-0.93 c0.8-1.04,1.62-2.06,2.47-3.07c0.39-0.48,0.8-0.96,1.22-1.43c0.03-0.04,0.06-0.08,0.1-0.12c0.33-0.38,0.66-0.76,1-1.13 c0.69-0.78,1.39-1.54,2.11-2.28c0.27-0.3,0.56-0.59,0.84-0.88c0.69-0.71,1.38-1.4,2.09-2.08c0.03-0.04,0.05-0.06,0.08-0.08 c0.59-0.58,1.19-1.15,1.8-1.7c0.11-0.11,0.23-0.22,0.34-0.32c0.45-0.41,0.91-0.82,1.37-1.23c0.5-0.44,1-0.88,1.51-1.31 c11.16-9.48,27.12-10.27,39.64-2.68c0.65,0.4,1.31,0.78,1.98,1.15c0.37,0.21,0.74,0.41,1.11,0.6c1.05,0.57,2.12,1.1,3.2,1.59 c0.22,0.11,0.45,0.21,0.68,0.31c0.39,0.18,0.79,0.35,1.18,0.51c0.49,0.2,0.98,0.4,1.47,0.59c1.29,0.49,2.6,0.94,3.92,1.33 c0.47,0.14,0.95,0.28,1.43,0.4c0.51,0.14,1.02,0.27,1.54,0.39c0.58,0.13,1.15,0.25,1.73,0.37c0.44,0.09,0.88,0.17,1.32,0.24h0.03 c0.43,0.07,0.85,0.14,1.28,0.2c0.03,0,0.05,0.01,0.08,0.01h0.01c0.05,0.01,0.11,0.01,0.16,0.02c0.39,0.06,0.79,0.1,1.18,0.15 c0.41,0.05,0.82,0.09,1.23,0.11c0.12,0.02,0.23,0.03,0.35,0.04c0.32,0.02,0.63,0.04,0.95,0.05c0.32,0.03,0.64,0.04,0.96,0.05 c0.54,0.02,1.09,0.03,1.63,0.03c9.7,0,18.95-3.01,27.41-8.14c12.49-7.56,28.42-6.83,39.56,2.61c0.51,0.43,1.02,0.87,1.52,1.31 c0.38,0.34,0.75,0.67,1.12,1.01c0.98,0.89,1.95,1.8,2.9,2.73c0.57,0.55,1.12,1.11,1.67,1.67c0.61,0.62,1.2,1.25,1.8,1.89 c0.53,0.57,1.06,1.15,1.57,1.74c0.35,0.4,0.7,0.79,1.04,1.19c0.3,0.34,0.59,0.68,0.88,1.03c0.65,0.77,1.28,1.56,1.9,2.35 c0.6,0.76,1.19,1.52,1.77,2.3c0.02,0.03,0.04,0.07,0.07,0.1c0.03,0.04,0.06,0.07,0.08,0.11c0.35,0.45,0.69,0.92,1.01,1.38 c0.39,0.53,0.77,1.07,1.14,1.62c0.38,0.54,0.75,1.09,1.11,1.64c0.33,0.5,0.66,1,0.98,1.51c0.04,0.07,0.08,0.14,0.13,0.21 c0.22,0.34,0.43,0.67,0.63,1.02c0.3,0.47,0.59,0.95,0.87,1.44c0.06,0.09,0.12,0.19,0.17,0.28c0.27,0.44,0.53,0.89,0.77,1.34 c0.2,0.32,0.38,0.65,0.56,0.98c0.45,0.81,0.89,1.63,1.32,2.46c0.14,0.27,0.29,0.55,0.43,0.83c0.15,0.28,0.29,0.56,0.42,0.84 c0.01,0.02,0.02,0.03,0.03,0.05s0.02,0.04,0.03,0.06c0.26,0.53,0.52,1.06,0.77,1.6c0.16,0.32,0.31,0.64,0.45,0.96 c0.33,0.71,0.65,1.42,0.96,2.13c0.3,0.68,0.59,1.37,0.87,2.07c0.29,0.69,0.57,1.39,0.84,2.1c0.07,0.19,0.14,0.38,0.21,0.58 c0.18,0.48,0.36,0.95,0.53,1.43c0.02,0.04,0.03,0.09,0.05,0.13c0.11,0.3,0.22,0.61,0.32,0.92c0.25,0.71,0.49,1.43,0.73,2.16 s0.47,1.47,0.69,2.21c0.18,0.62,0.36,1.23,0.53,1.86c0.13,0.46,0.26,0.92,0.38,1.39c0.04,0.12,0.07,0.25,0.1,0.38 c0.03,0.12,0.06,0.24,0.09,0.37c0.01,0.04,0.02,0.07,0.03,0.11c0.13,0.49,0.26,0.99,0.37,1.49v0.01c0.01,0.04,0.02,0.09,0.03,0.14 c0.02,0.07,0.04,0.15,0.05,0.22c0.14,0.57,0.27,1.14,0.39,1.72c0.11,0.51,0.22,1.02,0.32,1.54c0.09,0.41,0.17,0.81,0.24,1.22 c0.13,0.65,0.24,1.3,0.35,1.96c0.01,0.07,0.03,0.15,0.03,0.23c0.11,0.63,0.21,1.26,0.3,1.9c0.05,0.3,0.09,0.6,0.13,0.91 c0.11,0.72,0.2,1.44,0.28,2.17c0.1,0.86,0.19,1.73,0.27,2.6c34.03-29.12,55.59-72.38,55.59-120.68 C356.121,104.78,329.151,57.06,287.951,28.38z M203.011,191.62h-0.01c-1.87,0.27-3.76,0.41-5.67,0.41 c-34.72,0-62.86-44.68-62.86-79.4c0-34.71,28.14-62.85,62.86-62.85c26.69,0,49.5,16.64,58.61,40.11 c2.74,7.05,4.24,14.72,4.24,22.74C260.181,145.44,235.061,187.13,203.011,191.62z"></path> <rect x="88.102" y="344.873" style="fill:#666666;" width="218.452" height="15"></rect> <rect x="88.102" y="379.662" style="fill:#666666;" width="218.452" height="15"></rect> <path style="opacity:0.23;fill:#F2F2F2;enable-background:new ;" d="M126.161,16.8l-11.09,21.31l-11.83,22.74l-25.96,49.88 l-12.39,23.82l-23.94,46l-0.73,1.41c-1.11-7.56-1.68-15.3-1.68-23.17C38.541,96.68,74.201,42.9,126.161,16.8z"></path> <path style="opacity:0.23;fill:#F2F2F2;enable-background:new ;" d="M356.121,158.79c0,48.3-21.56,91.56-55.59,120.68v0.01 c-27.75,23.75-63.8,38.1-103.2,38.1c-19.26,0-37.73-3.43-54.81-9.72l8.41-16.17l39.93-76.74h0.01l12.13-23.33h0.01l52.93-101.73 l32.01-61.51C329.151,57.06,356.121,104.78,356.121,158.79z"></path> </g> </g></svg> -->

<!-- <svg version="1.1" id="Layer_1" xmlns="http://www.w3.org/2000/svg" xmlns:xlink="http://www.w3.org/1999/xlink" viewBox="-45.34 -45.34 544.03 544.03" xml:space="preserve" width="64px" height="64px" fill="#000000"><g id="SVGRepo_bgCarrier" stroke-width="0"></g><g id="SVGRepo_tracerCarrier" stroke-linecap="round" stroke-linejoin="round"></g><g id="SVGRepo_iconCarrier"> <g> <path style="fill:#88C5FC;" d="M426.2,129.87v227.74H27.16V129.87c0-10.1,8.18-18.28,18.28-18.28h122l2.41,0.71 c-1.58,5.33-2.42,10.97-2.42,16.81c0,1.85,0.08,3.67,0.26,5.48H50.16v200.02H403.2V134.59H285.66c0.18-1.81,0.26-3.63,0.26-5.48 c0-5.84-0.84-11.48-2.42-16.81l2.41-0.71h122.01C418.01,111.59,426.2,119.77,426.2,129.87z"></path> <path style="fill:#F2F2F2;" d="M403.2,134.59v200.02h-78.04v-95.4c0-27.86-22.58-50.44-50.44-50.44c-4.14,0-8.18,1.22-11.7,3.41 c-10.55,6.57-23,10.37-36.34,10.37s-25.8-3.8-36.35-10.37c-3.52-2.19-7.55-3.41-11.7-3.41c-13.92,0-26.53,5.65-35.66,14.77 c-9.12,9.13-14.77,21.74-14.77,35.67v95.4H50.16V134.59h117.53c2.76,30.15,28.12,53.77,58.99,53.77s56.23-23.62,58.98-53.77h37.24 h55.37H403.2z"></path> <path style="fill:#70B1E0;" d="M426.2,357.61h27.15c0,20.71-16.79,37.5-37.5,37.5H37.5c-10.36,0-19.73-4.2-26.52-10.98 C4.2,377.34,0,367.97,0,357.61h27.16H426.2z"></path> <path style="fill:#F9DD53;" d="M325.16,239.21v95.4H128.2v-95.4c0-13.93,5.65-26.54,14.77-35.67c9.13-9.12,21.74-14.77,35.66-14.77 c1.78,0,3.55,0.22,5.26,0.66c2.26,0.57,4.43,1.5,6.44,2.75c10.55,6.57,23.01,10.37,36.35,10.37s25.79-3.8,36.34-10.37 c2.01-1.25,4.18-2.18,6.45-2.75c1.7-0.44,3.47-0.66,5.25-0.66C302.58,188.77,325.16,211.35,325.16,239.21z"></path> <g> <path style="opacity:0.23;fill:#F2F2F2;enable-background:new ;" d="M366.62,111.59l-12.18,23l-27.21,52.29l-76.88,147.73 l-11.97,23H426.2V129.87c0-0.32-0.01-0.63-0.02-0.94c-0.03-0.59-0.09-1.17-0.18-1.74c-0.04-0.34-0.1-0.68-0.17-1.01 c-0.12-0.59-0.27-1.18-0.45-1.75c-0.09-0.28-0.18-0.57-0.29-0.85c-0.2-0.56-0.44-1.11-0.7-1.64c-0.09-0.21-0.2-0.41-0.31-0.61 c-0.04-0.1-0.1-0.19-0.16-0.29c-0.09-0.19-0.2-0.37-0.31-0.55c-0.02-0.05-0.05-0.09-0.09-0.14c-0.14-0.24-0.29-0.47-0.45-0.7 c-0.16-0.25-0.33-0.49-0.51-0.72c-0.52-0.71-1.1-1.37-1.72-1.99c-0.42-0.41-0.85-0.81-1.3-1.18c-1.35-1.12-2.87-2.04-4.51-2.74 c-0.55-0.23-1.1-0.43-1.68-0.61c-1.71-0.53-3.54-0.82-5.43-0.82h-31.31H366.62z"></path> <path style="opacity:0.23;fill:#F2F2F2;enable-background:new ;" d="M125.363,111.59L27.16,304.31V129.87 c0-10.1,8.19-18.28,18.28-18.28H125.363z"></path> </g> <g> <path style="opacity:0.23;fill:#F2F2F2;enable-background:new ;" d="M453.35,357.61c0,11.27-4.98,21.39-12.85,28.26H318.92 l14.7-28.26H453.35z"></path> </g> <path style="opacity:0.23;fill:#808080;enable-background:new ;" d="M167.43,129.11c0,1.85,0.08,3.67,0.26,5.48h-12.02 c-1.02-4.85-1.55-9.71-1.55-14.45c0-2.9,0.2-5.75,0.59-8.55h12.73l2.41,0.71C168.27,117.63,167.43,123.27,167.43,129.11z"></path> <path style="opacity:0.23;fill:#808080;enable-background:new ;" d="M285.92,129.11c0,1.85-0.08,3.67-0.26,5.48h12.02 c1.02-4.85,1.55-9.71,1.55-14.45c0-2.9-0.2-5.75-0.59-8.55h-12.73l-2.41,0.71C285.08,117.63,285.92,123.27,285.92,129.11z"></path> <path style="opacity:0.23;fill:#808080;enable-background:new ;" d="M161.81,109.59c0.12,1.36,0.23,2.6,0.3,3.61 C161.61,111.51,160.97,109.59,161.81,109.59z"></path> <path style="fill:#FFDED7;" d="M271.43,202.55c0,24.71-20.04,44.75-44.75,44.75s-44.75-20.04-44.75-44.75 c0-4.57,0.68-8.97,1.96-13.12c2.26,0.57,4.43,1.5,6.44,2.75c0.8,0.5,1.62,0.98,2.45,1.45l1.7-7.34l3.33-14.34 c7.09,7.93,17.4,12.91,28.87,12.91c10.63,0,20.25-4.28,27.26-11.22l3.31,14.25l1.56,6.71c1.43-0.76,2.84-1.57,4.21-2.42 c2.01-1.25,4.18-2.18,6.45-2.75C270.75,193.58,271.43,197.98,271.43,202.55z"></path> <path style="opacity:0.23;fill:#808080;enable-background:new ;" d="M271.43,202.55c0,24.71-20.04,44.75-44.75,44.75 s-44.75-20.04-44.75-44.75c0-4.57,0.68-8.97,1.96-13.12c1.42,0.36,2.8,0.86,4.13,1.49c-0.06,0.83-0.09,1.67-0.09,2.52 c0,21.4,17.35,38.75,38.75,38.75c21.39,0,38.75-17.35,38.75-38.75c0-0.85-0.03-1.69-0.09-2.53c1.32-0.62,2.71-1.12,4.13-1.48 C270.75,193.58,271.43,197.98,271.43,202.55z"></path> <path style="opacity:0.23;fill:#808080;enable-background:new ;" d="M257.25,187.89c-8,7.49-18.74,12.08-30.57,12.08 c-12.64,0-24.06-5.24-32.2-13.68l3.33-14.34c7.09,7.93,17.4,12.91,28.87,12.91c10.63,0,20.25-4.28,27.26-11.22L257.25,187.89z"></path> <path style="fill:#FFDED7;" d="M288.57,120.14c0,0.34,0,0.69-0.01,1.04c-0.55,33.95-28.04,73.29-61.88,73.29 c-34.18,0-61.89-40.15-61.89-74.33c0-3.68,0.32-7.28,0.94-10.78c0.48-2.7,1.13-5.34,1.94-7.91c0.38-1.23,0.81-2.44,1.27-3.63 c2.88-7.46,7.16-14.21,12.52-19.94c6.64-7.11,14.95-12.66,24.29-16.01c4.19-1.51,8.6-2.58,13.16-3.14c1.91-0.25,3.84-0.4,5.8-0.46 c0.6-0.02,1.21-0.03,1.82-0.03c0.55,0,1.1,0.01,1.64,0.02c0.53,0.01,1.05,0.03,1.58,0.06c0.46,0.02,0.92,0.04,1.38,0.08 c28.97,2.05,52.42,24.05,56.72,52.34c0.14,0.9,0.26,1.82,0.36,2.76C288.45,115.68,288.57,117.9,288.57,120.14z"></path> <path style="fill:#666666;" d="M226.68,58.24c-2.63,0-5.23,0.16-7.77,0.49c-4.56,0.56-8.97,1.63-13.16,3.14 c-16.88,6.06-30.36,19.26-36.81,35.95c2.41,0.43,4.88,0.65,7.41,0.65c11.49,0,21.93-4.55,29.6-11.93 c5.66,22.19,25.78,38.6,49.73,38.6c12.35,0,23.68-4.36,32.53-11.64C284.91,82.43,258.62,58.24,226.68,58.24z"></path> <rect x="128.2" y="319.803" style="opacity:0.23;fill:#808080;enable-background:new ;" width="196.813" height="14.807"></rect> </g> </g></svg> -->

<!-- line icon -->
<svg width="64px" height="64px" viewBox="-4.48 -4.48 40.96 40.96" enable-background="new 0 0 32 32" id="Layer_1" version="1.1" xml:space="preserve" xmlns="http://www.w3.org/2000/svg" xmlns:xlink="http://www.w3.org/1999/xlink" fill="#000000"><g id="SVGRepo_bgCarrier" stroke-width="0"></g><g id="SVGRepo_tracerCarrier" stroke-linecap="round" stroke-linejoin="round"></g><g id="SVGRepo_iconCarrier"> <g id="profile_x2C__person"> <g> <g> <g> <path d="M16,31C7.729,31,1,24.271,1,16S7.729,1,16,1s15,6.729,15,15S24.271,31,16,31z M16,2C8.28,2,2,8.28,2,16 s6.28,14,14,14s14-6.28,14-14S23.72,2,16,2z" fill="#ffffff"></path> </g> </g> </g> <g> <g id="team_3_"> <g> <g> <g> <g> <path d="M23.64,20.713l-4.762-1.652l-0.323-2.584c-0.215,0.307-0.523,0.546-0.924,0.671l0.293,2.345 c0.023,0.189,0.152,0.349,0.332,0.41l5.055,1.756c0.9,0.314,1.689,1.427,1.689,2.381v-0.007c0,0.276,0.224,0.5,0.5,0.5 c0.275,0,0.499-0.223,0.5-0.498C25.997,22.656,24.94,21.168,23.64,20.713z" fill="#ffffff"></path> </g> </g> </g> </g> <g> <g> <g> <g> <path d="M6.5,24.532c-0.276,0-0.5-0.224-0.5-0.5v0.007c0-1.379,1.059-2.871,2.359-3.326l4.762-1.641 l0.012-0.28c0.034-0.274,0.289-0.465,0.559-0.434c0.273,0.034,0.468,0.284,0.434,0.559l-0.051,0.589 c-0.023,0.189-0.153,0.348-0.333,0.41l-5.054,1.742C7.789,21.973,7,23.086,7,24.039v-0.007C7,24.309,6.776,24.532,6.5,24.532 z" fill="#ffffff"></path> </g> </g> </g> </g> <g> <g> <g> <g> <g> <path d="M16,18.039c-2.779,0-4.192-1.844-4.201-6.469c-0.002-1.174,0.123-2.363,1.227-3.469 C13.729,7.396,14.729,7.039,16,7.039s2.271,0.357,2.975,1.063c1.104,1.105,1.229,2.295,1.227,3.469 C20.192,16.195,18.779,18.039,16,18.039z M16,8.039c-1.009,0-1.75,0.252-2.267,0.769c-0.632,0.633-0.938,1.2-0.935,2.761 c0.008,4.018,1.055,5.471,3.201,5.471s3.193-1.453,3.201-5.471c0.003-1.561-0.303-2.128-0.935-2.761 C17.75,8.291,17.009,8.039,16,8.039z" fill="#ffffff"></path> </g> </g> </g> </g> </g> </g> </g> </g> </g></svg>

