<!-- <svg version="1.1" id="Layer_1" xmlns="http://www.w3.org/2000/svg" xmlns:xlink="http://www.w3.org/1999/xlink" viewBox="-76.8 -76.8 665.60 665.60" xml:space="preserve" width="64px" height="64px" fill="#000000" stroke="#000000" stroke-width="0.00512"><g id="SVGRepo_bgCarrier" stroke-width="0"></g><g id="SVGRepo_tracerCarrier" stroke-linecap="round" stroke-linejoin="round"></g><g id="SVGRepo_iconCarrier"> <rect x="232.191" y="445.555" style="fill:#E6E6E6;" width="47.619" height="66.445"></rect> <rect x="232.191" y="445.555" style="fill:#CCCCCC;" width="10.8" height="66.445"></rect> <rect x="260.013" y="445.555" style="fill:#F2F2F2;" width="10.8" height="66.445"></rect> <rect x="232.191" y="445.555" style="fill:#CCCCCC;" width="47.619" height="30.903"></rect> <path style="fill:#B3B3B3;" d="M290.922,389.21v75.981h-69.82V389.21c11.328,2.209,22.999,3.375,34.904,3.375 C267.923,392.585,279.582,391.419,290.922,389.21z"></path> <path style="fill:#999999;" d="M235.286,389.21v75.981h-14.184V389.21c2.301,2.209,4.672,3.375,7.09,3.375 C230.614,392.585,232.982,391.419,235.286,389.21z"></path> <path style="fill:#CCCCCC;" d="M280.368,389.21v75.981h-14.184V389.21c2.301,2.209,4.672,3.375,7.09,3.375 C275.695,392.585,278.064,391.419,280.368,389.21z"></path> <path style="fill:#999999;" d="M256.006,392.585c-11.905,0-23.576-1.166-34.904-3.375v23.318c11.328,2,22.999,3.044,34.904,3.044 c11.917,0,23.576-1.043,34.916-3.044V389.21C279.582,391.419,267.923,392.585,256.006,392.585z"></path> <path style="fill:#F77346;" d="M256.006,0c110.345,0,199.803,89.457,199.803,199.815c0,98.441-71.183,180.252-164.886,196.759 c-11.34,2-22.999,3.044-34.916,3.044c-11.905,0-23.576-1.043-34.904-3.044c-93.716-16.507-164.911-98.318-164.911-196.759 C56.191,89.457,145.648,0,256.006,0z"></path> <path style="fill:#F4550F;" d="M256.006,384.071c-10.815,0-21.647-0.945-32.194-2.807c-42.119-7.419-80.633-29.578-108.447-62.393 c-28.134-33.194-43.629-75.476-43.629-119.057c0-101.606,82.663-184.269,184.269-184.269c101.6,0,184.256,82.663,184.256,184.269 c0,43.581-15.492,85.864-43.621,119.057c-27.809,32.816-66.315,54.974-108.427,62.393 C277.653,383.127,266.817,384.071,256.006,384.071z"></path> <path style="fill:#35D8B9;" d="M137.577,81.377c65.295-65.295,171.552-65.295,236.856,0.009s65.295,171.552,0,236.847 c-65.304,65.304-171.552,65.313-236.856,0.009S72.273,146.681,137.577,81.377z"></path> <path style="fill:#B9FCEF;" d="M374.432,81.385c65.304,65.304,65.295,171.552,0,236.847 c-65.304,65.304-171.552,65.313-236.856,0.009"></path> <rect x="196.857" y="267.389" style="fill:#F2F2F2;" width="118.298" height="46.539"></rect> <path style="fill:#FFFFFF;" d="M273.016,199.815c0-9.401-7.609-17.022-17.01-17.022c-9.401,0-17.022,7.621-17.022,17.022 s7.621,17.022,17.022,17.022C265.407,216.837,273.016,209.216,273.016,199.815z"></path> <g> <path style="fill:#666666;" d="M315.149,261.866h-39.544c-0.006,0-0.012-0.001-0.018-0.001h-39.171 c-0.006,0-0.012,0.001-0.018,0.001h-39.548c-3.05,0-5.523,2.473-5.523,5.523v46.539c0,3.05,2.473,5.523,5.523,5.523h39.527 c0.015,0,0.027,0.004,0.042,0.004h39.171c0.015,0,0.027-0.004,0.042-0.004h39.52c3.05,0,5.523-2.473,5.523-5.523v-46.539 C320.672,264.339,318.2,261.866,315.149,261.866z M241.94,308.405v-35.493h28.126v35.493H241.94z M202.374,272.912h28.521v35.493 h-28.521V272.912z M309.626,308.405H281.11v-35.493h28.516V308.405z"></path> <path style="fill:#666666;" d="M261.524,177.981v-51.873h-11.046v51.874c-9.763,2.474-17.019,11.309-17.019,21.831 c0,12.431,10.114,22.545,22.545,22.545c12.425,0,22.533-10.114,22.533-22.545C278.539,189.291,271.285,180.454,261.524,177.981z M256.006,211.314c-6.341,0-11.5-5.158-11.5-11.5c0-6.336,5.152-11.492,11.487-11.498h0.023 c6.329,0.006,11.476,5.162,11.476,11.498C267.494,206.156,262.34,211.314,256.006,211.314z"></path> <rect x="250.477" y="59.438" style="fill:#666666;" width="11.046" height="33.419"></rect> <rect x="196.996" y="78.071" transform="matrix(-0.342 -0.9397 0.9397 -0.342 208.2402 313.0015)" style="fill:#666666;" width="33.419" height="11.046"></rect> <rect x="159.807" y="99.553" transform="matrix(-0.6428 -0.766 0.766 -0.6428 209.4925 307.8353)" style="fill:#666666;" width="33.418" height="11.045"></rect> <rect x="132.195" y="132.444" transform="matrix(-0.866 -0.5 0.5 -0.866 208.8721 331.9027)" style="fill:#666666;" width="33.418" height="11.045"></rect> <rect x="117.492" y="172.82" transform="matrix(-0.9848 -0.1737 0.1737 -0.9848 235.3859 377.2847)" style="fill:#666666;" width="33.419" height="11.046"></rect> <rect x="361.068" y="215.784" transform="matrix(-0.9848 -0.1737 0.1737 -0.9848 711.3721 504.8686)" style="fill:#666666;" width="33.419" height="11.046"></rect> <rect x="128.694" y="204.581" transform="matrix(-0.1736 -0.9848 0.9848 -0.1736 -60.4133 391.8862)" style="fill:#666666;" width="11.045" height="33.419"></rect> <rect x="372.277" y="161.623" transform="matrix(-0.1736 -0.9848 0.9848 -0.1736 267.7623 581.3542)" style="fill:#666666;" width="11.045" height="33.419"></rect> <rect x="357.595" y="121.259" transform="matrix(-0.5 -0.866 0.866 -0.5 425.1972 521.4208)" style="fill:#666666;" width="11.045" height="33.418"></rect> <rect x="329.957" y="88.367" transform="matrix(-0.766 -0.6428 0.6428 -0.766 524.9188 401.2193)" style="fill:#666666;" width="11.045" height="33.418"></rect> <rect x="292.783" y="66.886" transform="matrix(-0.9397 -0.342 0.342 -0.9397 550.0344 264.1713)" style="fill:#666666;" width="11.046" height="33.419"></rect> </g> </g></svg> -->

<!-- <svg height="64px" width="64px" version="1.1" id="Layer_1" xmlns="http://www.w3.org/2000/svg" xmlns:xlink="http://www.w3.org/1999/xlink" viewBox="-96.8 -96.8 596.94 596.94" xml:space="preserve" fill="#000000"><g id="SVGRepo_bgCarrier" stroke-width="0"></g><g id="SVGRepo_tracerCarrier" stroke-linecap="round" stroke-linejoin="round"></g><g id="SVGRepo_iconCarrier"> <g> <path style="fill:#666666;" d="M399.161,273.046c5.56-24.47,5.56-49.93,0.01-74.41h-26.09c-3.14-11.61-7.75-22.89-13.88-33.55 l18.44-18.44c-6.53-10.4-14.32-20.2-23.37-29.25c-5.09-5.09-10.42-9.79-15.96-14.08c-4.31-3.33-8.73-6.43-13.28-9.29l-18.45,18.44 c-5.05-2.9-10.23-5.46-15.52-7.69c-5.88-2.47-11.91-4.53-18.02-6.18v-26.09c-14.89-3.39-30.17-4.71-45.36-3.97 c-9.76,0.47-19.48,1.8-29.04,3.98v26.08c-3.39,0.91-6.76,1.95-10.08,3.13c-8.07,2.83-15.93,6.41-23.48,10.74l-18.44-18.44 c-10.39,6.54-20.2,14.32-29.24,23.37c-9.05,9.05-16.84,18.85-23.37,29.25l18.44,18.44c-4.34,7.55-7.92,15.41-10.75,23.48 c-1.17,3.32-2.21,6.69-3.13,10.07h-26.07c-2.18,9.57-3.51,19.28-3.98,29.04c-0.74,15.19,0.58,30.47,3.97,45.37h26.08 c3.14,11.6,7.76,22.88,13.88,33.54l-18.44,18.44c6.53,10.4,14.32,20.2,23.37,29.25c2.31,2.31,4.67,4.53,7.07,6.68 c7.02,6.26,14.43,11.82,22.17,16.69l5.05-5.05l13.39-13.39c9.68,5.55,19.86,9.87,30.34,12.96c1.07,0.32,2.14,0.62,3.22,0.91v26.1 c24.47,5.55,49.94,5.55,74.4-0.01v-26.09c11.61-3.13,22.89-7.75,33.54-13.87l18.45,18.44c10.39-6.54,20.2-14.32,29.24-23.37 c9.05-9.05,16.84-18.85,23.37-29.25l-18.44-18.44c6.12-10.66,10.74-21.94,13.87-33.54H399.161z M296.911,296.916 c-20.4,20.4-48.46,28.46-74.92,24.19c-12.67-2.04-24.97-6.92-35.89-14.63c-3.98-2.81-7.78-6-11.34-9.56 c-3.93-3.93-7.41-8.14-10.42-12.58c-22.86-33.61-19.39-79.78,10.42-109.58c16.54-16.53,38.1-24.97,59.77-25.29 c10.37-0.15,20.75,1.55,30.62,5.1c11.6,4.17,22.47,10.9,31.76,20.19c0.28,0.28,0.55,0.55,0.81,0.83 C330.651,209.376,330.371,263.466,296.911,296.916z"></path> <path style="fill:#999999;" d="M188.561,101.726c-8.07,2.83-15.93,6.41-23.48,10.74l-18.44-18.44 c-10.39,6.54-20.2,14.32-29.24,23.37c-9.05,9.05-16.84,18.85-23.37,29.25l18.44,18.44c-4.34,7.55-7.92,15.41-10.75,23.48 c-7.4-3.21-14.34-7.84-20.39-13.89c-25.78-25.78-25.78-67.57-0.01-93.35c25.78-25.78,67.57-25.78,93.35,0 C180.731,87.386,185.361,94.316,188.561,101.726z"></path> <path style="fill:#B3B3B3;" d="M236.371,59.836l-8.69,8.7c-9.76,0.47-19.48,1.8-29.04,3.98v26.08c-3.39,0.91-6.76,1.95-10.08,3.13 c-3.2-7.41-7.83-14.34-13.89-20.4c-22.09-22.09-55.95-25.25-81.4-9.48c-4.25,2.64-8.26,5.79-11.95,9.48 c-13.83,13.84-20.24,32.29-19.22,50.41c0.88,15.62,7.29,31,19.23,42.94c6.05,6.05,12.99,10.68,20.39,13.89 c-1.17,3.32-2.21,6.69-3.13,10.07h-26.07c-2.18,9.57-3.51,19.28-3.98,29.04l-8.7,8.69c-7.94-5-15.43-10.94-22.34-17.86 c-4.71-4.71-8.97-9.68-12.79-14.89c-1.79-2.43-3.48-4.92-5.08-7.45l14.1-14.1c-4.68-8.14-8.21-16.76-10.6-25.63H3.191 c-4.25-18.7-4.25-38.18,0.01-56.86h19.92c2.4-8.87,5.93-17.49,10.61-25.64l-14.1-14.1c5-7.94,10.95-15.43,17.86-22.34 c6.91-6.92,14.41-12.87,22.35-17.87l14.1,14.1c8.15-4.68,16.77-8.21,25.63-10.6V3.196c10.21-2.33,20.66-3.38,31.08-3.17 c8.66,0.18,17.3,1.24,25.78,3.17l0.01,19.93c8.86,2.4,17.48,5.93,25.63,10.6l14.09-14.09c7.94,4.99,15.43,10.94,22.35,17.86 C225.421,44.406,231.371,51.896,236.371,59.836z"></path> <path style="fill:#999999;" d="M296.911,174.756c33.74,33.73,33.74,88.43,0,122.16c-33.73,33.73-88.42,33.73-122.15,0 c-33.74-33.73-33.74-88.43,0-122.16C208.491,141.026,263.181,141.026,296.911,174.756z M257.001,256.996 c11.69-11.69,11.69-30.64,0-42.32c-11.69-11.69-30.64-11.69-42.33,0c-11.69,11.68-11.69,30.63,0,42.32 C226.361,268.686,245.311,268.686,257.001,256.996z"></path> <path style="fill:#666666;" d="M235.836,306.214c-18.798,0-36.47-7.32-49.762-20.611c-13.296-13.292-20.618-30.966-20.618-49.766 s7.322-36.474,20.617-49.765c13.293-13.293,30.965-20.613,49.763-20.613s36.47,7.32,49.762,20.611 c13.297,13.292,20.618,30.966,20.619,49.766c-0.001,18.8-7.322,36.474-20.617,49.765 C272.306,298.894,254.634,306.214,235.836,306.214z M235.836,189.909c-12.269,0-23.803,4.778-32.479,13.455 c-8.674,8.666-13.454,20.199-13.454,32.47c0,12.268,4.778,23.802,13.454,32.478c8.676,8.676,20.21,13.454,32.479,13.454 s23.803-4.778,32.479-13.454c8.676-8.676,13.454-20.21,13.454-32.478c0-12.271-4.78-23.803-13.459-32.475 C259.639,194.687,248.105,189.909,235.836,189.909z"></path> <g style="opacity:0.23;"> <path style="fill:#808080;" d="M82.947,183.465h-26.07c-2.18,9.57-3.51,19.28-3.98,29.04c-0.313,6.425-0.235,12.865,0.19,19.287 c2.214,1.601,4.463,3.131,6.754,4.574l8.7-8.69c0.47-9.76,1.8-19.47,3.98-29.04h26.07c0.92-3.38,1.96-6.75,3.13-10.07 c-6.089-2.641-11.857-6.26-17.083-10.824C84.038,179.643,83.468,181.551,82.947,183.465z"></path> <path style="fill:#808080;" d="M188.561,101.726c3.32-1.18,6.69-2.22,10.08-3.13v-26.08c9.56-2.18,19.28-3.51,29.04-3.98l8.69-8.7 c-1.327-2.107-2.725-4.18-4.186-6.221c-6.707-0.479-13.436-0.578-20.149-0.251c-9.76,0.47-19.48,1.8-29.04,3.98v26.08 c-1.687,0.453-3.369,0.938-5.043,1.457C182.422,90.047,185.969,95.724,188.561,101.726z"></path> </g> <g> <path style="fill:#808080;" d="M146.354,94.213l-15.358-15.358c-10.39,6.54-20.2,14.32-29.24,23.37 c-9.05,9.05-16.84,18.85-23.37,29.25l18.44,18.44c-4.34,7.55-7.92,15.41-10.75,23.48c-0.507,1.44-0.979,2.892-1.439,4.348 c5.227,4.564,10.995,8.183,17.083,10.824c2.83-8.07,6.41-15.93,10.75-23.48l-18.44-18.44c6.53-10.4,14.32-20.2,23.37-29.25 C126.357,108.43,136.071,100.715,146.354,94.213z"></path> <path style="fill:#808080;" d="M172.917,86.555c-7.962,2.792-15.719,6.318-23.177,10.571l15.341,15.341 c7.55-4.33,15.41-7.91,23.48-10.74c-2.592-6.002-6.139-11.68-10.607-16.845C176.265,85.405,174.584,85.962,172.917,86.555z"></path> </g> <g> <path style="opacity:0.23;fill:#F2F2F2;enable-background:new ;" d="M373.071,273.046c-3.13,11.6-7.75,22.88-13.87,33.54 l18.44,18.44c-6.53,10.4-14.32,20.2-23.37,29.25c-9.04,9.05-18.85,16.83-29.24,23.37l-18.45-18.44 c-10.65,6.12-21.93,10.74-33.54,13.87v26.09c-24.46,5.56-49.93,5.56-74.4,0.01v-26.1c-1.08-0.29-2.15-0.59-3.22-0.91l26.57-51.06 l75.73-145.52l37.6-72.27h2.99c5.54,4.29,10.87,8.99,15.96,14.08c9.05,9.05,16.84,18.85,23.37,29.25l-18.44,18.44 c6.13,10.66,10.74,21.94,13.88,33.55h26.09c5.55,24.48,5.55,49.94-0.01,74.41L373.071,273.046L373.071,273.046z"></path> </g> <g> <path style="opacity:0.23;fill:#F2F2F2;enable-background:new ;" d="M130.651,0.026l-2.88,5.53l-34.5,66.29l-31.17,59.89 l-10.06,19.34l-27.33,52.54c-1.79-2.43-3.48-4.92-5.08-7.45l14.1-14.1c-4.68-8.14-8.21-16.76-10.6-25.63H3.191 c-4.25-18.7-4.25-38.18,0.01-56.86h19.92c2.4-8.87,5.93-17.49,10.61-25.64l-14.1-14.1c5-7.94,10.95-15.43,17.86-22.34 c6.91-6.92,14.41-12.87,22.35-17.87l14.1,14.1c8.15-4.68,16.77-8.21,25.63-10.6V3.196C109.781,0.866,120.231-0.184,130.651,0.026z "></path> </g> <g> <path style="opacity:0.23;fill:#F2F2F2;enable-background:new ;" d="M291.061,104.776l-24.64,47.36l-1.27,2.43l-79.05,151.91 l-17.34,33.32l-17.07,32.8l-5.05,5.05c-7.74-4.87-15.15-10.43-22.17-16.69l26.78-51.46l13.09-25.16l70.19-134.87l7.71-14.81 l30.8-59.2v23.14C279.151,100.246,285.181,102.307,291.061,104.776z"></path> </g> </g> </g></svg> -->


<!-- line icon -->
<svg fill="#ffffff" version="1.1" id="Layer_1" xmlns="http://www.w3.org/2000/svg" xmlns:xlink="http://www.w3.org/1999/xlink" viewBox="-67.81 -67.81 619.96 619.96" xml:space="preserve" width="64px" height="64px" stroke="#ffffff" stroke-width="0.0048433999999999994"><g id="SVGRepo_bgCarrier" stroke-width="0"></g><g id="SVGRepo_tracerCarrier" stroke-linecap="round" stroke-linejoin="round"></g><g id="SVGRepo_iconCarrier"> <g> <g> <g> <path d="M274.624,264.628h-22.808c-1.725-19.14-10.02-36.933-23.815-50.729c-13.796-13.796-31.589-22.091-50.729-23.816v-22.808 h-15v22.815c-39.457,3.579-70.959,35.081-74.538,74.538H64.919v15h22.815c3.579,39.457,35.081,70.959,74.538,74.538v22.815h15 v-22.812c20.354-1.883,39.486-11.362,53.35-26.642c12.195-13.295,19.577-30.079,21.201-47.899h22.801V264.628z M169.773,339.522 c-37.163,0.001-67.396-30.232-67.396-67.394s30.233-67.395,67.395-67.395c15.443,0,30.106,5.205,42.02,14.768l-45.127,45.126 h-36.837v15h37.045l47.337,43.033C201.983,333.446,186.16,339.522,169.773,339.522z M224.307,311.571l-43.671-39.701 l41.762-41.761c9.563,11.914,14.768,26.576,14.768,42.02C237.166,286.411,232.64,300.152,224.307,311.571z"></path> <rect x="219.702" y="69.902" width="29.958" height="15"></rect> <rect x="109.855" y="69.902" width="99.859" height="15"></rect> <rect x="219.702" y="99.86" width="29.958" height="15"></rect> <rect x="179.759" y="99.86" width="29.957" height="15"></rect> <rect x="59.926" y="169.762" width="19.972" height="15"></rect> <rect x="59.926" y="354.502" width="19.972" height="15"></rect> <rect x="259.645" y="169.762" width="19.972" height="15"></rect> <rect x="259.645" y="354.502" width="19.972" height="15"></rect> <path d="M436.906,174.754v-37.437h-15v37.437h-19.972v99.881h19.972v192.219c0,1.051,0,2.359-2.588,2.486H159.785 c-1.052,0-2.358,0-2.485-2.588v-62.3h34.93v22.458c0,7.029,4.656,17.486,17.485,17.486H349.52 c7.029,0,17.486-4.657,17.486-17.486V164.79h19.972V64.91h-19.972V27.472h-15v37.437h-19.973v99.88h19.973V426.91 c0,1.051,0,2.359-2.588,2.486H209.715c-1.052,0-2.358,0-2.485-2.587v-22.357h87.366c9.642,0,17.486-7.844,17.486-17.486V17.486 C312.082,7.844,304.238,0,294.595,0H44.947c-9.642,0-17.486,7.844-17.486,17.486v369.48c0,9.642,7.845,17.486,17.486,17.486 h97.353v62.402c0,7.029,4.656,17.486,17.485,17.486h259.635c7.029,0,17.486-4.657,17.486-17.486V274.635h19.972v-99.881H436.906z M347.033,149.789v-69.88h24.944v69.88H347.033z M42.461,17.486c0-1.347,1.138-2.486,2.486-2.486h249.648 c1.348,0,2.486,1.139,2.486,2.486V134.81h-19.951V34.951H62.413v99.859H42.461V17.486z M262.132,49.951v84.859H77.413V49.951 H262.132z M44.947,389.453c-1.348,0-2.486-1.139-2.486-2.486V149.811h254.621v237.156c0,1.348-1.139,2.486-2.486,2.486H44.947z M441.879,259.635h-24.943v-69.881h24.943V259.635z"></path> </g> </g> </g> </g></svg>