<!-- <svg height="200px" width="200px" version="1.1" id="Layer_1" xmlns="http://www.w3.org/2000/svg" xmlns:xlink="http://www.w3.org/1999/xlink" viewBox="0 0 422.89 422.89" xml:space="preserve" fill="#000000"><g id="SVGRepo_bgCarrier" stroke-width="0"></g><g id="SVGRepo_tracerCarrier" stroke-linecap="round" stroke-linejoin="round"></g><g id="SVGRepo_iconCarrier"> <g> <path style="fill:#AFDAF9;" d="M391.928,165c-0.3-0.02-0.61-0.04-0.91-0.07c-29.82-2.25-54.92-9.48-73.61-16.84 c-6.12-2.4-11.56-4.82-16.24-7.08c-13.24-6.39-20.53-11.51-20.53-11.51s-26.35,18.52-69.89,29.05c-2.46,0.59-4.98,1.16-7.56,1.7 c-15.47,3.25-32.88,5.4-51.86,5.4c0,0-0.92,7.04-1.41,18.85c-0.18,4.38-0.3,9.42-0.29,15c0.04,18.55,1.51,43.08,6.96,69.34 c1.01,4.84,2.15,9.73,3.45,14.65c8.38,31.97,23.13,65.27,48.62,92.66c2.32,2.5,4.74,4.95,7.25,7.35c-4.19,0.3-8.4,0.47-12.66,0.5 h-1.43c-2.28-0.02-4.56-0.07-6.82-0.17c-10.98-0.47-21.73-1.85-32.16-4.09c-40.68-8.7-76.57-30.29-103.2-60.3 c-3.34-3.75-6.52-7.62-9.55-11.63c-22.98-30.33-37.15-67.7-38.71-108.31c-0.09-2.49-0.14-4.99-0.14-7.5s0.05-5.01,0.14-7.5 c1.56-40.61,15.73-77.97,38.7-108.3c3.03-4.01,6.22-7.89,9.55-11.64c26.64-30,62.53-51.59,103.21-60.3 c5.25-1.13,10.58-2.04,15.99-2.73c7.54-0.95,15.21-1.47,22.99-1.53h1.43c13.37,0.09,26.41,1.56,38.99,4.26 c40.67,8.71,76.57,30.31,103.2,60.31c1.67,1.88,3.3,3.79,4.89,5.73c1.59,1.94,3.14,3.91,4.65,5.91 c8.97,11.84,16.59,24.74,22.63,38.49c0.29,0.64,0.57,1.29,0.85,1.94c4.8,11.23,8.55,23,11.15,35.21c0.25,1.16,0.49,2.33,0.71,3.5 c0.29,1.49,0.56,2.99,0.82,4.5C391.418,161.56,391.688,163.28,391.928,165z"></path> <path style="fill:#97C9E8;" d="M354.978,76.21c-1.51-2-3.06-3.97-4.65-5.91c-1.59-1.94-3.22-3.85-4.89-5.73 c-12.29,8.57-26.71,15.92-42.96,21.91c-9.65-26.24-22.84-48.47-38.43-64.61c-6.89-7.13-14.21-13.03-21.81-17.61 c-12.58-2.7-25.62-4.17-38.99-4.26h-1.43c-13.36,0.1-26.4,1.56-38.98,4.26c-7.6,4.58-14.91,10.48-21.81,17.61 c-15.6,16.14-28.8,38.38-38.44,64.61c-16.24-5.99-30.67-13.34-42.96-21.92c-3.33,3.75-6.52,7.63-9.55,11.64l0.35,0.24 c13.59,9.56,29.51,17.71,47.4,24.27c-7.84,25.84-12.25,54.51-12.9,83.79h-73.55c-0.09,2.49-0.14,4.99-0.14,7.5s0.05,5.01,0.14,7.5 h73.55c0.65,29.29,5.06,57.97,12.9,83.8c-17.89,6.56-33.81,14.71-47.4,24.27l-0.34,0.24c3.03,4.01,6.21,7.88,9.55,11.63 c12.29-8.57,26.71-15.92,42.95-21.92c9.66,26.25,22.86,48.48,38.44,64.62c6.9,7.14,14.21,13.03,21.81,17.6 c12.58,2.7,25.62,4.16,38.98,4.26h1.43c4.26-0.03,8.47-0.2,12.66-0.5c-2.51-2.4-4.93-4.85-7.25-7.35l-4.35,0.36 c-0.36,0.01-0.7,0-1.06,0.01l-1.04-0.01h-0.22c-34.06-0.75-66.25-32.63-85.16-83.73c13.48-4.05,27.71-7.14,42.42-9.18l0.79-0.11 l6.64-0.91l-2.06-14.86l-7.42,1.03c-0.2,0.03-0.41,0.06-0.61,0.09c-15.42,2.16-30.36,5.42-44.53,9.71 c-7.33-24.34-11.49-51.38-12.12-79.05h57.25v-15h-57.25c0.63-27.66,4.79-54.7,12.12-79.04c25.83,7.81,54.47,12.22,83.69,12.86 v41.93h15v-41.96c28.73-0.76,56.85-5.15,82.26-12.83c3.42,11.33,6.16,23.23,8.16,35.55c0.26,1.6,0.51,3.21,0.75,4.83l1.09,7.42 l14.84-2.17l-0.44-3l-0.65-4.42c-2.18-14.92-5.38-29.33-9.51-42.96c17.89-6.56,33.81-14.71,47.4-24.27L354.978,76.21z M195.748,103.32c-27.6-0.64-54.59-4.78-78.92-12.09c17.73-47.97,47.19-78.99,78.92-83.23V103.32z M210.748,103.28V8.22 c31.18,4.96,60.02,35.76,77.49,83.01C264.338,98.41,237.858,102.53,210.748,103.28z"></path> <path style="opacity:0.23;fill:#808080;enable-background:new ;" d="M391.138,159.85c-0.26-1.51-0.53-3.01-0.82-4.5 c-0.22-1.17-0.46-2.34-0.71-3.5c-2.6-12.21-6.35-23.98-11.15-35.21c-0.28-0.65-0.56-1.3-0.85-1.94 c-45.28,18.6-116.97-1.5-116.97-1.5s-51.44,38.65-129.31,38.65c0,0-18.06,147.32,63.67,231.98c2.26,0.1,4.54,0.15,6.82,0.17h1.43 c4.26-0.03,8.47-0.2,12.66-0.5c-2.51-2.4-4.93-4.85-7.25-7.35c-25.49-27.39-40.24-60.69-48.62-92.66 c-1.3-4.92-2.44-9.81-3.45-14.65c-5.45-26.26-6.92-50.79-6.96-69.34c-0.01-5.58,0.11-10.62,0.29-15 c0.49-11.81,1.41-18.85,1.41-18.85c18.98,0,36.39-2.15,51.86-5.4c2.58-0.54,5.1-1.11,7.56-1.7c43.54-10.53,69.89-29.05,69.89-29.05 s7.29,5.12,20.53,11.51c4.68,2.26,10.12,4.68,16.24,7.08c18.69,7.36,43.79,14.59,73.61,16.84 C390.988,164.31,391.028,162.49,391.138,159.85z"></path> <ellipse transform="matrix(-0.3265 -0.9452 0.9452 -0.3265 -157.906 447.6255)" style="opacity:0.23;fill:#F2F2F2;enable-background:new ;" cx="80.525" cy="280.071" rx="38.681" ry="27.713"></ellipse> <path style="opacity:0.23;fill:#F2F2F2;enable-background:new ;" d="M378.458,116.64c-3.26,0.15-6.53,0.22-9.83,0.22 c-82.56,0-154.19-46.81-189.8-115.33c7.54-0.95,15.21-1.47,22.99-1.53h1.43c13.37,0.09,26.41,1.56,38.99,4.26 c40.67,8.71,76.57,30.31,103.2,60.31c1.67,1.88,3.3,3.79,4.89,5.73c1.59,1.94,3.14,3.91,4.65,5.91 C364.368,88.6,372.278,102.16,378.458,116.64z"></path> <path style="fill:#EA7D68;" d="M409.958,165.65c-6.18,0-12.19-0.23-18.03-0.65c-11.19-0.8-21.72-2.31-31.5-4.28 c-49.41-9.87-79.79-31.22-79.79-31.22s-17.14,12.04-46.6,22.22c-21.59,7.47-49.78,13.93-82.71,13.93c0,0-8.08,61.64,11.03,126.16 c9.56,32.3,25.94,65.32,53.55,91.69c6.23,5.95,13.02,11.56,20.45,16.75c12.82,8.95,27.49,16.64,44.28,22.64 C436.368,367.27,409.958,165.65,409.958,165.65z"></path> <path style="opacity:0.23;fill:#333333;enable-background:new ;" d="M379.638,196c0.15,18.39-1.16,44.53-7.52,72.06 c-13.72,59.37-44.47,99.83-91.48,120.44c-47.01-20.61-77.76-61.07-91.47-120.44c-6.36-27.52-7.68-53.66-7.52-72.06 c44.66-4.82,79.25-19.31,98.99-29.54C300.388,176.69,334.978,191.18,379.638,196z"></path> <path style="fill:#F9A18A;" d="M280.638,378.615c-42.224-19.883-70.037-57.737-82.701-112.58 c-5.379-23.277-6.996-45.546-7.26-62.07c38.656-5.253,69.486-17.26,89.962-27.416c20.484,10.155,51.321,22.162,89.966,27.415 c-0.271,16.555-1.891,38.843-7.256,62.069C350.674,320.879,322.859,358.732,280.638,378.615z"></path> <path style="opacity:0.23;fill:#F2F2F2;enable-background:new ;" d="M280.638,422.89c-16.79-6-31.46-13.69-44.28-22.64 c58.1-75.62,99.46-157.26,124.07-239.53c9.78,1.97,20.31,3.48,31.5,4.28c5.84,0.42,11.85,0.65,18.03,0.65 C409.958,165.65,436.368,367.27,280.638,422.89z"></path> <path style="opacity:0.23;fill:#F2F2F2;enable-background:new ;" d="M234.038,151.72c-14.35,34.18-40.59,92.17-71.68,140.09 c-19.11-64.52-11.03-126.16-11.03-126.16C184.258,165.65,212.448,159.19,234.038,151.72z"></path> </g> </g></svg> -->

<!-- <svg height="64px" width="64px" version="1.1" id="Layer_1" xmlns="http://www.w3.org/2000/svg" xmlns:xlink="http://www.w3.org/1999/xlink" viewBox="-99.81 -99.81 615.49 615.49" xml:space="preserve" fill="#000000"><g id="SVGRepo_bgCarrier" stroke-width="0"></g><g id="SVGRepo_tracerCarrier" stroke-linecap="round" stroke-linejoin="round"></g><g id="SVGRepo_iconCarrier"> <g> <g> <path style="fill:#AFDAF9;" d="M317.126,208.203c0,1.575-0.035,3.151-0.117,4.703c-0.952,21.949-8.594,42.17-20.962,58.664 c-1.869,2.516-3.868,4.949-5.972,7.289c-14.213,15.848-33.153,27.38-54.608,32.377c-7.512,1.763-15.33,2.716-23.371,2.775h0.788 c-0.259,0.012-0.517,0.012-0.788,0.012h-0.788c-0.259,0-0.529,0-0.788-0.012h0.788c-8.029-0.059-15.848-1.011-23.36-2.775 c-21.455-4.996-40.395-16.518-54.62-32.365c-2.093-2.339-4.091-4.773-5.972-7.301c-12.356-16.494-20.009-36.715-20.95-58.664 c-0.082-1.552-0.117-3.127-0.117-4.703c0-1.575,0.035-3.151,0.117-4.703c0.941-21.949,8.594-42.17,20.95-58.664 c1.881-2.528,3.88-4.961,5.972-7.301c14.225-15.848,33.165-27.369,54.62-32.365c7.512-1.763,15.33-2.715,23.36-2.774h-0.788 c0.259-0.012,0.529-0.012,0.788-0.012c0.141,0,0.271,0,0.4,0.012c0.129-0.012,0.259-0.012,0.388-0.012c0.27,0,0.529,0,0.788,0.012 h-0.788c8.041,0.059,15.859,1.011,23.371,2.774c21.455,4.996,40.395,16.53,54.608,32.377l5.972,7.289 c12.368,16.494,20.009,36.715,20.962,58.664C317.091,205.052,317.126,206.628,317.126,208.203z"></path> <path style="fill:#97C9E8;" d="M317.008,212.906c0.082-1.552,0.117-3.127,0.117-4.703c0-1.575-0.035-3.151-0.117-4.703h-39.936 c-0.4-15.8-2.775-31.272-6.96-45.262c9.699-3.598,18.34-8.053,25.747-13.261l0.188-0.141l-5.972-7.289 c-6.595,4.585-14.296,8.523-22.948,11.768c-7.607-20.479-18.681-35.716-31.66-44.145c-7.512-1.763-15.33-2.715-23.371-2.774h0.788 c-0.259-0.012-0.517-0.012-0.788-0.012c-0.129,0-0.259,0-0.388,0.012c-0.129-0.012-0.259-0.012-0.4-0.012 c-0.259,0-0.529,0-0.788,0.012h0.788c-8.029,0.059-15.848,1.011-23.36,2.774c-12.979,8.418-24.065,23.666-31.66,44.145 c-8.676-3.245-16.377-7.195-22.96-11.78c-2.093,2.339-4.091,4.773-5.972,7.301l0.188,0.141 c7.407,5.208,16.048,9.664,25.758,13.261c-4.185,13.99-6.572,29.461-6.96,45.262h-39.936c-0.082,1.552-0.117,3.127-0.117,4.703 c0,1.575,0.035,3.151,0.117,4.703h39.936c0.388,15.789,2.775,31.26,6.96,45.262c-9.711,3.598-18.352,8.053-25.758,13.261 l-0.188,0.141c1.881,2.528,3.88,4.961,5.972,7.301c6.583-4.585,14.284-8.535,22.96-11.78c7.595,20.48,18.681,35.728,31.66,44.145 c7.512,1.763,15.33,2.716,23.36,2.775h-0.788c0.259,0.012,0.529,0.012,0.788,0.012h0.788c0.27,0,0.529,0,0.788-0.012h-0.788 c8.041-0.059,15.859-1.011,23.371-2.775c12.979-8.417,24.053-23.665,31.66-44.145c8.664,3.245,16.365,7.183,22.948,11.768 c2.104-2.34,4.103-4.773,5.972-7.289l-0.188-0.141c-7.395-5.208-16.048-9.652-25.747-13.261c4.185-14.002,6.56-29.473,6.96-45.262 H317.008z M207.392,308.944c-16.894-2.61-32.565-19.233-42.17-44.815c13.026-3.856,27.428-6.054,42.17-6.442V308.944z M207.392,248.281c-15.754,0.4-31.178,2.751-45.145,6.925c-3.88-13.073-6.09-27.51-6.478-42.299h51.622v35.374H207.392z M207.392,203.501H155.77c0.388-14.79,2.598-29.238,6.478-42.299c13.967,4.162,29.391,6.525,45.145,6.924v35.375H207.392z M207.392,158.72c-14.743-0.388-29.132-2.586-42.17-6.442c9.593-25.57,25.264-42.205,42.17-44.827V158.72z M216.797,107.593 c16.6,3.01,31.942,19.504,41.394,44.686c-12.803,3.786-26.922,5.972-41.394,6.419L216.797,107.593L216.797,107.593z M216.797,308.814v-51.117c14.472,0.447,28.591,2.645,41.394,6.43C248.727,289.311,233.397,305.805,216.797,308.814z M261.154,255.204c-13.732-4.103-28.874-6.454-44.357-6.901v-35.398h50.846C267.256,227.695,265.033,242.132,261.154,255.204z M216.797,203.501v-35.399c15.483-0.458,30.625-2.81,44.357-6.901c3.879,13.061,6.101,27.51,6.49,42.299h-50.847V203.501z"></path> </g> <path style="fill:#F9A18A;" d="M246.495,71.844h-70.3V1.545h70.3V71.844z M191.195,56.844h40.3V16.545h-40.3V56.844z"></path> <path style="fill:#F9A18A;" d="M257.821,414.323h-92.953l46.477-76.108L257.821,414.323z M191.604,399.323h39.48l-19.74-32.327 L191.604,399.323z"></path> <path style="fill:#F9A18A;" d="M39.836,248.038C17.87,248.038,0,230.169,0,208.203s17.87-39.835,39.836-39.835 c21.965,0,39.835,17.87,39.835,39.835C79.671,230.169,61.801,248.038,39.836,248.038z M39.836,183.368 C26.142,183.368,15,194.509,15,208.203s11.142,24.835,24.836,24.835s24.835-11.141,24.835-24.835 C64.671,194.509,53.53,183.368,39.836,183.368z"></path> <polygon style="fill:#F9A18A;" points="415.867,185.798 405.261,175.19 382.854,197.596 360.448,175.19 349.842,185.798 372.248,208.203 349.842,230.609 360.448,241.216 382.854,218.809 405.261,241.216 415.867,230.609 393.461,208.203 "></polygon> <path style="fill:#E6E6E6;" d="M61.05,136.539l-13.535-6.465c18.111-37.919,49.053-68.599,87.125-86.39l6.35,13.59 C106.057,73.598,77.667,101.748,61.05,136.539z"></path> <path style="fill:#E6E6E6;" d="M288.051,372.717l-6.35-13.59c35.891-16.77,64.712-45.842,81.152-81.861l13.646,6.229 C358.58,322.754,327.168,354.44,288.051,372.717z"></path> <path style="fill:#E6E6E6;" d="M361.642,136.539c-16.615-34.785-45.006-62.936-79.941-79.266l6.352-13.589 c38.075,17.798,69.017,48.478,87.125,86.39L361.642,136.539z"></path> <path style="fill:#E6E6E6;" d="M134.64,372.717c-39.118-18.278-70.529-49.965-88.448-89.222l13.646-6.229 c16.439,36.018,45.26,65.09,81.151,81.861L134.64,372.717z"></path> </g> </g></svg> -->

<!-- line icon -->
<svg version="1.0" id="Layer_1" xmlns="http://www.w3.org/2000/svg" xmlns:xlink="http://www.w3.org/1999/xlink" width="64px" height="64px" viewBox="-8.96 -8.96 81.92 81.92" enable-background="new 0 0 64 64" xml:space="preserve" fill="#ffffff" stroke="#ffffff"><g id="SVGRepo_bgCarrier" stroke-width="0"></g><g id="SVGRepo_tracerCarrier" stroke-linecap="round" stroke-linejoin="round"></g><g id="SVGRepo_iconCarrier"> <path fill="#ffffff" d="M32,0C14.327,0,0,14.327,0,32s14.327,32,32,32s32-14.327,32-32S49.673,0,32,0z M49.972,31 c-0.138-5.582-1.414-10.878-3.613-15.667c2.652-1.022,5.169-2.317,7.515-3.854c4.824,5.14,7.854,11.976,8.102,19.521H49.972z M33.333,61.966c-0.11,0.005-0.222,0.005-0.333,0.009V50.035c3.324,0.087,6.547,0.581,9.605,1.47 C40.184,55.541,37.029,59.084,33.333,61.966z M44.549,52.141c2.283,0.801,4.462,1.817,6.523,3.018 c-3.991,3.29-8.849,5.563-14.178,6.438C39.902,58.861,42.484,55.672,44.549,52.141z M21.394,51.505 c3.059-0.89,6.282-1.383,9.606-1.47v11.939c-0.111-0.004-0.223-0.004-0.333-0.009C26.97,59.084,23.816,55.541,21.394,51.505z M27.105,61.596c-5.329-0.874-10.187-3.147-14.178-6.438c2.062-1.2,4.24-2.217,6.523-3.017 C21.515,55.672,24.098,58.861,27.105,61.596z M2.025,31c0.248-7.545,3.277-14.381,8.102-19.521c2.346,1.536,4.862,2.831,7.515,3.854 C15.442,20.122,14.166,25.418,14.028,31H2.025z M43.57,14.196c-3.345,1.069-6.894,1.67-10.57,1.766V2.025 c0.111,0.004,0.223,0.004,0.333,0.009C37.541,5.314,41.047,9.453,43.57,14.196z M36.895,2.404 c5.944,0.976,11.298,3.696,15.521,7.622c-2.176,1.391-4.496,2.57-6.944,3.499C43.278,9.326,40.369,5.562,36.895,2.404z M31,2.025 v13.937c-3.677-0.096-7.226-0.696-10.57-1.766c2.523-4.743,6.029-8.882,10.237-12.162C30.777,2.029,30.889,2.029,31,2.025z M18.529,13.525c-2.448-0.929-4.769-2.108-6.944-3.499c4.223-3.926,9.576-6.646,15.521-7.622 C23.631,5.562,20.722,9.326,18.529,13.525z M19.532,16.009c3.622,1.189,7.472,1.873,11.468,1.972V31H16.031 C16.17,25.654,17.403,20.584,19.532,16.009z M31,33v15.036c-3.684,0.092-7.245,0.665-10.615,1.689 C17.732,44.712,16.188,39.029,16.031,33H31z M33,48.036V33h14.969c-0.156,6.029-1.701,11.712-4.354,16.726 C40.245,48.701,36.684,48.128,33,48.036z M33,31V17.98c3.996-0.099,7.846-0.782,11.468-1.972c2.129,4.575,3.362,9.646,3.501,14.991 H33z M2.025,33h12.003c0.154,6.253,1.74,12.146,4.447,17.369c-2.496,0.899-4.871,2.044-7.109,3.396 C5.827,48.513,2.294,41.172,2.025,33z M52.634,53.766c-2.238-1.353-4.613-2.497-7.109-3.396c2.707-5.224,4.293-11.116,4.447-17.369 h12.003C61.706,41.172,58.173,48.513,52.634,53.766z"></path> </g></svg>